<svg xmlns="http://www.w3.org/2000/svg" width="54.476" height="41.296" viewBox="0 0 54.476 41.296">
  <g id="printer-icon-red" transform="translate(-162 -124.743)">
    <g id="printer-05" transform="translate(162 124.743)">
      <path id="Path_3" data-name="Path 3" d="M57.249,25.786a3.076,3.076,0,1,1-3.074-3.077A3.079,3.079,0,0,1,57.249,25.786Z" transform="translate(-7.604 -9.969)" fill="#fff"/>
      <path id="Path_4" data-name="Path 4" d="M15.815,43.327v.879H38.661v-.879Zm0-3.515v.879H38.661v-.879Zm0-3.514v.879H38.661V36.3Zm0-3.515v.879H38.661v-.879Zm30.754-12.3a3.076,3.076,0,1,0,3.074,3.077A3.08,3.08,0,0,0,46.569,20.482Zm0,5.272a2.2,2.2,0,1,1,2.2-2.2A2.2,2.2,0,0,1,46.569,25.754ZM15.815,44.207H38.661v-.879H15.815Zm0-3.515H38.661v-.879H15.815Zm0-3.514H38.661V36.3H15.815Zm0-4.395v.879H38.661v-.879ZM53.6,16.53H43.933V8.621a.88.88,0,0,0-.879-.879H11.422a.88.88,0,0,0-.879.879V16.53H.878A.877.877,0,0,0,0,17.406V39.373a.878.878,0,0,0,.878.879h9.665v7.908a.878.878,0,0,0,.879.878H43.054a.878.878,0,0,0,.879-.878V40.252H53.6a.879.879,0,0,0,.878-.879V17.406A.877.877,0,0,0,53.6,16.53ZM12.3,9.5H42.175V16.53H12.3ZM42.175,47.282H12.3V29.709H42.175ZM52.719,38.5H43.933V28.828a.878.878,0,0,0-.879-.878H11.422a.878.878,0,0,0-.879.878V38.5H1.757V18.286H52.719Zm-6.15-11.863a3.076,3.076,0,1,0-3.077-3.074A3.079,3.079,0,0,0,46.569,26.633Zm0-5.272a2.2,2.2,0,1,1-2.2,2.2A2.2,2.2,0,0,1,46.569,21.361ZM38.661,43.327H15.815v.879H38.661Zm0-3.515H15.815v.879H38.661Zm0-3.514H15.815v.879H38.661Zm0-3.515H15.815v.879H38.661Zm7.908-12.3a3.076,3.076,0,1,0,3.074,3.077A3.08,3.08,0,0,0,46.569,20.482Zm0,5.272a2.2,2.2,0,1,1,2.2-2.2A2.2,2.2,0,0,1,46.569,25.754Z" transform="translate(0 -7.742)" fill="#e1001a"/>
      <path id="Path_5" data-name="Path 5" d="M2.064,20.13V40.34H10.85V30.672a.878.878,0,0,1,.879-.878H43.361a.878.878,0,0,1,.879.878V40.34h8.786V20.13Zm44.812,8.347A3.076,3.076,0,1,1,49.951,25.4,3.079,3.079,0,0,1,46.876,28.477Z" transform="translate(-0.307 -9.586)" fill="#e1001a"/>
    </g>
  </g>
</svg>
