<svg xmlns="http://www.w3.org/2000/svg" width="38.715" height="41.296" viewBox="0 0 38.715 41.296">
  <g id="share-cion-red" transform="translate(-16)">
    <g id="Group_2" data-name="Group 2" transform="translate(16)">
      <path id="Path_6" data-name="Path 6" d="M47.456,26.778a7.232,7.232,0,0,0-5.821,2.965L30.195,23.884a6.849,6.849,0,0,0-.214-4.739l11.973-7.2A7.219,7.219,0,1,0,40.2,7.259a7.192,7.192,0,0,0,.505,2.61L28.693,17.095a7.247,7.247,0,1,0,.457,8.973l11.4,5.839a7.16,7.16,0,0,0-.356,2.13,7.259,7.259,0,1,0,7.259-7.259Z" transform="translate(-16)" fill="#e1001a"/>
    </g>
  </g>
</svg>
