<svg xmlns="http://www.w3.org/2000/svg" width="24.999" height="22.07" viewBox="0 0 24.999 22.07">
  <g id="heart-icon-white" transform="translate(0 -30)">
    <g id="Group_1" data-name="Group 1" transform="translate(0 30)">
      <path id="Path_1" data-name="Path 1" d="M18.359,30a5.919,5.919,0,0,0-3.7,1.278,8.42,8.42,0,0,0-2.163,2.6,8.42,8.42,0,0,0-2.163-2.6A5.919,5.919,0,0,0,6.64,30C2.855,30,0,33.1,0,37.2c0,4.436,3.562,7.471,8.953,12.066.916.78,1.953,1.665,3.032,2.608a.781.781,0,0,0,1.028,0c1.079-.943,2.117-1.828,3.033-2.609C21.438,44.674,25,41.639,25,37.2,25,33.1,22.144,30,18.359,30Z" transform="translate(0 -30)" fill="#fff"/>
    </g>
  </g>
</svg>
