<svg id="motorcycle-icon-white" xmlns="http://www.w3.org/2000/svg" width="30.535" height="18.679" viewBox="0 0 30.535 18.679">
  <path id="Path_2" data-name="Path 2" d="M10.58,84.264H8.552a.993.993,0,0,0-.262.036l-.632.179A4.347,4.347,0,0,0,4.389,83a4.389,4.389,0,1,0,4.33,5.093l1.062-.31a2.5,2.5,0,0,0,2.338,1.741l4.926.072-5.308-4.878A1.684,1.684,0,0,0,10.58,84.264ZM4.389,90.1a2.708,2.708,0,0,1,0-5.415,2.662,2.662,0,0,1,1.336.358l-.883.25a2.142,2.142,0,0,1,1.05,3.626l.883-.262A2.706,2.706,0,0,1,4.389,90.1Z" transform="translate(0 -73.1)" fill="#fff"/>
  <circle id="Ellipse_1" data-name="Ellipse 1" cx="1.908" cy="1.908" r="1.908" transform="translate(2.481 12.381)" fill="#fff"/>
  <path id="Path_3" data-name="Path 3" d="M32.746,10.031l.441-.215a.2.2,0,0,0-.036-.37,4.589,4.589,0,0,0-2.958.262l-.322-.68a12.915,12.915,0,0,1,3.077-1.264s1.4-.525-2.839-5.367A3.748,3.748,0,0,0,28.273,0a40.672,40.672,0,0,0,.68,4.282s-.406,1.121-1.24.155c0,0-.37-2.075-3.924-1.515l.012.561,1.407-.1.215.692a.77.77,0,0,1,.942.489l.024.072-.835.561A5.816,5.816,0,0,0,23.49,4.1,5.083,5.083,0,0,0,18.421,5.26a3.687,3.687,0,0,0-.763.978,1.2,1.2,0,0,1-1.038.68,13.734,13.734,0,0,1-2.708-.191.844.844,0,0,1-.692-.62,1.657,1.657,0,0,0-.835-1.085S8.724,4.64,6.791,4.58a.45.45,0,0,0-.406.668l.489.895L17.216,10.83a1.669,1.669,0,0,1,.465.31l5.833,5.367H27.2a24.928,24.928,0,0,1-.918-4.163,10.051,10.051,0,0,1,2.66-2.7l.25.537A4.969,4.969,0,0,0,27.1,12.357a.2.2,0,0,0,.262.262l.382-.191a4.39,4.39,0,1,0,5-2.4ZM31.72,17a2.712,2.712,0,0,1-1.61-4.89l.191.406a2.2,2.2,0,0,1,1-.453l-.191-.406a2.474,2.474,0,0,1,.6-.072A2.708,2.708,0,0,1,31.72,17Z" transform="translate(-5.575)" fill="#fff"/>
  <circle id="Ellipse_2" data-name="Ellipse 2" cx="1.908" cy="1.908" r="1.908" transform="translate(23.992 12.664) rotate(-7.955)" fill="#fff"/>
</svg>
