<svg id="Group_1" data-name="Group 1" xmlns="http://www.w3.org/2000/svg" width="305.4" height="97.1" viewBox="0 0 305.4 97.1">
  <path id="Path_1" data-name="Path 1" d="M297.6,15.7a7.85,7.85,0,0,0,0-15.7,7.769,7.769,0,0,0-7.8,7.9,7.685,7.685,0,0,0,7.8,7.8ZM38.9,12,14.3,38.9C6.8,47.9,0,53.2,0,64.8,0,81,13.6,91.1,34,91.1h68.7V43.4H68V57H51.8c-7.8.6-8.7-2.6-4.5-6.8L59.6,36.6a11.31,11.31,0,0,1,9.7-4.5h33.4V0h-36C57,0,48.6,2.3,38.9,12ZM248.8,0V32.1h35V0Zm0,36.9V91.1h35V36.9ZM109.8,0V32.1h35V0Zm0,36.9V91.1h35V36.9ZM150.8,0V32.1h35V0Zm57,0V32.1h35V0ZM185.4,39.2V36.9H150.7V44c0,4.9,2.3,11,4.5,14.9l14.6,23c5.5,7.1,9.1,15.2,27.5,15.2,18.5,0,20.4-8.1,26.2-15.2l14.6-23c2.3-3.9,4.5-10,4.5-14.9V36.9H207.9v2.3c-.3,2.3-.2,3.9-1.6,5.8l-6.8,10.7c-1.3,1.9-2.6,2.9-4.9,0l-7.8-11c-1.1-1.9-1-3.2-1.4-5.5ZM297.6,13.8a5.834,5.834,0,0,1-6-6,6,6,0,0,1,12,0,5.891,5.891,0,0,1-6,6Zm1.7-5.4c1.4-.1,2.2-.7,2.2-2.2,0-2.2-1.3-2.5-3.2-2.5h-4v8.1h1.8V8.4h1.3l1.8,3.4h2l-1.9-3.4Zm-3.1-1.2V5.1H298c.8,0,1.8,0,1.8.8,0,1-.5,1.2-1.4,1.2h-2.2Z" fill="#fff"/>
</svg>
