<svg xmlns="http://www.w3.org/2000/svg" width="17.217" height="17.249" viewBox="0 0 17.217 17.249">
  <path id="phone-icon-red" d="M18.883,14.79V17.16a1.58,1.58,0,0,1-1.723,1.58,15.638,15.638,0,0,1-6.819-2.426A15.409,15.409,0,0,1,5.6,11.574,15.638,15.638,0,0,1,3.174,4.723,1.58,1.58,0,0,1,4.747,3H7.117A1.58,1.58,0,0,1,8.7,4.359a10.146,10.146,0,0,0,.553,2.22A1.58,1.58,0,0,1,8.9,8.247l-1,1a12.643,12.643,0,0,0,4.741,4.741l1-1a1.58,1.58,0,0,1,1.667-.356,10.146,10.146,0,0,0,2.22.553,1.58,1.58,0,0,1,1.359,1.6Z" transform="translate(-2.417 -2.25)" fill="none" stroke="#e00c19" stroke-linecap="round" stroke-linejoin="round" stroke-width="1.5"/>
</svg>
