<svg xmlns="http://www.w3.org/2000/svg" width="19.499" height="19.499" viewBox="0 0 19.499 19.499">
  <g id="direction-icon-red" transform="translate(-0.007)">
    <g id="Group_65" data-name="Group 65" transform="translate(0.007 0)">
      <path id="Path_17" data-name="Path 17" d="M19.216,9.06h0L10.441.285a.971.971,0,0,0-1.375,0L.292,9.06a.977.977,0,0,0,0,1.38l8.775,8.77v0a.977.977,0,0,0,1.38,0l8.775-8.775A.972.972,0,0,0,19.216,9.06ZM11.7,12.185V9.747H7.8v2.925H5.854v-3.9A.972.972,0,0,1,6.829,7.8H11.7V5.36l3.412,3.412Z" transform="translate(-0.007 0)" fill="#e00c19"/>
    </g>
  </g>
</svg>
