<svg xmlns="http://www.w3.org/2000/svg" xmlns:xlink="http://www.w3.org/1999/xlink" width="41" height="41" viewBox="0 0 41 41">
  <defs>
    <linearGradient id="linear-gradient" x1="-1.539" y1="-3.018" x2="-0.966" y2="-3.274" gradientUnits="objectBoundingBox">
      <stop offset="0" stop-color="#fd5"/>
      <stop offset="0.5" stop-color="#ff543e"/>
      <stop offset="1" stop-color="#c837ab"/>
    </linearGradient>
  </defs>
  <g id="instagram-icon" transform="translate(0.07 0.038)">
    <path id="Path_15" data-name="Path 15" d="M2.6,2.808C-.608,6.144.049,9.689.049,20.456c0,8.941-1.56,17.9,6.606,20.015,2.55.656,25.144.656,27.691,0,3.4-.877,6.166-3.634,6.545-8.442.053-.671.053-22.455,0-23.14-.4-5.121-3.555-8.073-7.71-8.67C32.227.076,32.036.035,27.151.027,9.822.035,6.023-.736,2.6,2.808Z" transform="translate(0 0)" fill="url(#linear-gradient)"/>
    <path id="Path_16" data-name="Path 16" d="M18.228,3.145c-6.183,0-12.054-.55-14.3,5.2-.926,2.376-.792,5.463-.792,9.882,0,3.878-.124,7.523.792,9.88,2.237,5.757,8.156,5.206,14.293,5.206,5.921,0,12.025.616,14.295-5.206.928-2.4.792-5.441.792-9.88,0-5.893.325-9.7-2.534-12.555-2.895-2.894-6.809-2.531-12.556-2.531ZM16.876,5.864c12.9-.02,14.538-1.454,13.632,18.458-.322,7.043-5.686,6.27-12.279,6.27-12.022,0-12.367-.344-12.367-12.367,0-12.163.954-12.354,11.014-12.364Zm9.406,2.5a1.81,1.81,0,1,0,1.81,1.81A1.81,1.81,0,0,0,26.282,8.368Zm-8.054,2.116a7.746,7.746,0,1,0,7.746,7.747,7.748,7.748,0,0,0-7.746-7.747Zm0,2.719c6.649,0,6.658,10.057,0,10.057S11.57,13.2,18.228,13.2Z" transform="translate(2.259 2.235)" fill="#fff"/>
  </g>
</svg>
