<svg xmlns="http://www.w3.org/2000/svg" width="41.4" height="41.3" viewBox="0 0 41.4 41.3">
  <g id="wechat-icon" transform="translate(0 -0.7)">
    <path id="Path_5" data-name="Path 5" d="M41.4,35.8A6.231,6.231,0,0,1,35.2,42H6.2A6.231,6.231,0,0,1,0,35.8V6.9A6.231,6.231,0,0,1,6.2.7H35.1a6.231,6.231,0,0,1,6.2,6.2V35.8Z" fill="#2dc100"/>
    <g id="Group_2" data-name="Group 2">
      <path id="Path_6" data-name="Path 6" d="M27.7,16.1a13.008,13.008,0,0,0-8.6,3.5,10.068,10.068,0,0,0-3.2,8.6c-1.3-.2-2.5-.3-3.7-.4a2.953,2.953,0,0,0-1.3.2c-1.2.7-2.3,1.4-3.6,2.2a22.135,22.135,0,0,1,.7-3,1.136,1.136,0,0,0-.5-1.5c-4-2.8-5.7-7.1-4.4-11.4A11.475,11.475,0,0,1,11,6.5a13.2,13.2,0,0,1,14.5,4.3A9.041,9.041,0,0,1,27.7,16.1ZM12.3,14.7a1.538,1.538,0,0,0-1.5-1.5,1.617,1.617,0,0,0-1.6,1.4,1.473,1.473,0,0,0,1.5,1.5A1.424,1.424,0,0,0,12.3,14.7Zm8-1.5a1.5,1.5,0,1,0,1.5,1.5A1.368,1.368,0,0,0,20.3,13.2Z" fill="#fff"/>
      <path id="Path_7" data-name="Path 7" d="M35.2,36.9a10.268,10.268,0,0,0-3.1-1.3c-1-.1-2.1.5-3.2.6a10.764,10.764,0,0,1-8.6-2.8c-4.6-4.3-3.9-10.8,1.4-14.3,4.7-3.1,11.7-2.1,15,2.2a8.506,8.506,0,0,1-1,11.9c-1,.9-1.4,1.7-.7,2.9C35.1,36.3,35.1,36.6,35.2,36.9ZM23.1,25.2A1.3,1.3,0,0,0,24.4,24a1.24,1.24,0,0,0-1.2-1.3A1.324,1.324,0,0,0,21.9,24,1.216,1.216,0,0,0,23.1,25.2Zm7.8-2.5a1.155,1.155,0,0,0-1.2,1.2,1.24,1.24,0,0,0,1.2,1.3A1.155,1.155,0,0,0,32.1,24,1.3,1.3,0,0,0,30.9,22.7Z" fill="#fff"/>
    </g>
  </g>
</svg>
