<svg xmlns="http://www.w3.org/2000/svg" width="41.3" height="33.413" viewBox="0 0 41.3 33.413">
  <g id="Group_1" data-name="Group 1" transform="translate(-313 -304)">
    <ellipse id="Ellipse_1" data-name="Ellipse 1" cx="13" cy="8.5" rx="13" ry="8.5" transform="translate(315 318)" fill="#fff"/>
    <g id="weibo-icon" transform="translate(134.362 304.139)">
      <path id="Path_1" data-name="Path 1" d="M229,12.1c.2,2.8-.3,6.2-2.1,6.3-3,.3-1.5-3.1-1.4-5.1a9.879,9.879,0,0,0-9.7-9.9c-1.4,0-4.6.9-4.1-2C211.9.1,213,.1,214.1,0A13.023,13.023,0,0,1,229,12.1Z" transform="translate(-9.103)" fill="#e99315"/>
      <path id="Path_2" data-name="Path 2" d="M207.977,16.1c2.778,1.5,6.191,2.291,5.636,6.8a9.5,9.5,0,0,1-1.429,3.477c-4.763,6.558-18.971,9.324-27.861,4.346-3.016-1.659-6.112-4.109-5.636-9.008.4-4.188,3.254-7.506,6.033-10.272a19.554,19.554,0,0,1,9.287-5.689c4.128-1.027,5.4,2.37,4.286,5.768,2.381-.158,7.461-2.845,9.763-.237C208.93,12.467,208.533,14.521,207.977,16.1Zm-3.1,10.667a6.851,6.851,0,0,0,1.826-4.346c0-5.531-6.985-7.585-12.541-7.111a14.923,14.923,0,0,0-7.144,2.133,8.5,8.5,0,0,0-4.286,5.136c-1.111,5.531,4.921,8.139,9.366,8.455,5.243.318,10.4-1.5,12.784-4.265Z" fill="#d52a2c"/>
      <path id="Path_3" data-name="Path 3" d="M222,12.1c.3,2.1-.3,4-1.6,4.1-2.1.1-1.3-1.4-1.4-3.2a3.992,3.992,0,0,0-1.8-2.8c-1.6-.8-4.1.5-4.1-1.7,0-1.7,1.4-1.5,2.3-1.6a6,6,0,0,1,6.6,5.2Z" transform="translate(-9.103 -1.637)" fill="#e99315"/>
      <path id="Path_4" data-name="Path 4" d="M205.5,26.2c3,9.1-12.7,13.3-15.5,5.5-1.9-5.2,2.7-9.4,7.5-9.9C201.6,21.4,204.6,23.5,205.5,26.2Zm-7.2,1.6c.6,1.1,2.1.3,2-.6-.1-1-2-.8-2,.6Zm-2.5,4.8c2.6-.6,3-5.6-1-4.7-3.3.8-2.7,5.6,1,4.7Z" transform="translate(-2.917 -7.358)"/>
    </g>
  </g>
</svg>
