<svg id="whatsapp-icon" xmlns="http://www.w3.org/2000/svg" width="41" height="41" viewBox="0 0 41 41">
  <path id="Path_10" data-name="Path 10" d="M20.505,0h-.01A20.487,20.487,0,0,0,3.9,32.516L1.348,40.131l7.88-2.519A20.5,20.5,0,1,0,20.505,0Z" transform="translate(0)" fill="#1bd741"/>
  <path id="Path_11" data-name="Path 11" d="M131.108,136.66c-.495,1.4-2.457,2.555-4.023,2.893-1.071.228-2.47.41-7.18-1.543-6.024-2.5-9.9-8.618-10.206-9.015s-2.434-3.242-2.434-6.183a6.545,6.545,0,0,1,2.1-4.989,2.978,2.978,0,0,1,2.1-.735c.254,0,.482.013.687.023.6.026.9.062,1.3,1.012.495,1.192,1.7,4.133,1.842,4.436a1.22,1.22,0,0,1,.087,1.11,3.543,3.543,0,0,1-.664.94c-.3.348-.589.615-.892.989-.277.325-.589.674-.241,1.276a18.2,18.2,0,0,0,3.326,4.133,15.071,15.071,0,0,0,4.807,2.965,1.3,1.3,0,0,0,1.445-.228,24.8,24.8,0,0,0,1.6-2.122,1.144,1.144,0,0,1,1.471-.446c.554.192,3.482,1.64,4.085,1.94s1,.446,1.145.7A5.106,5.106,0,0,1,131.108,136.66Z" transform="translate(-98.674 -107.712)" fill="#fafafa"/>
</svg>
